<?xml version="1.0" encoding="UTF-8"?>
<svg width="369px" height="148px" viewBox="0 0 369 148" version="1.1" xmlns="http://www.w3.org/2000/svg" xmlns:xlink="http://www.w3.org/1999/xlink">
    <!-- Generator: Sketch 61.2 (89653) - https://sketch.com -->
    <title>Group</title>
    <desc>Created with Sketch.</desc>
    <g id="Page-1" stroke="none" stroke-width="1" fill="none" fill-rule="evenodd">
        <g id="myda_education_partner-03" transform="translate(0.000000, -15.000000)" fill="#0156B8" fill-rule="nonzero">
            <g id="Group" transform="translate(0.000000, 15.000000)">
                <path d="M114.88,69.5 L114.88,116.56 C114.88,117.92 114.2,118.62 112.86,118.65 C112.82,118.66 112.77,118.66 112.73,118.66 L101.63,118.66 C100.19,118.66 99.47,117.96 99.47,116.56 L99.47,73.8 C99.47,68.2 97.9,63.64 94.77,60.11 C91.73,56.69 87.77,54.95 82.85,54.84 C82.94,54.83 83.03,54.83 83.13,54.83 C83.23,54.83 83.31,54.83 83.4,54.84 L83.4,54.83 L82.85,54.83 L82.85,54.84 C82.75,54.83 82.64,54.83 82.54,54.83 L81.98,54.83 C76.92,54.87 72.85,56.63 69.75,60.11 C67.66,62.47 66.27,65.28 65.56,68.56 C65.45,69.11 65.35,69.67 65.27,70.25 C65.11,71.39 65.04,72.57 65.04,73.8 L65.04,116.56 C65.04,117.72 64.55,118.39 63.58,118.58 C63.37,118.64 63.15,118.66 62.89,118.66 L52.1,118.66 C52.06,118.66 52.01,118.66 51.97,118.65 C50.61,118.62 49.95,117.91 49.95,116.56 L49.95,73.8 C49.95,72.57 49.87,71.38 49.72,70.25 C49.18,66.24 47.7,62.86 45.25,60.12 C42.15,56.64 38.08,54.88 33.01,54.84 L32.45,54.84 C27.39,54.88 23.32,56.64 20.22,60.12 C17.08,63.65 15.51,68.21 15.51,73.81 L15.51,116.57 C15.51,117.97 14.8,118.67 13.36,118.67 L2.26,118.67 C2.08,118.67 1.91,118.66 1.76,118.64 C1.28,118.58 0.91,118.41 0.64,118.14 C0.37,117.88 0.21,117.51 0.14,117.06 C0.11,116.9 0.11,116.74 0.11,116.56 L0.11,44.7 C0.11,43.25 0.81,42.53 2.21,42.53 L8.59,42.53 C9.64,42.53 10.36,43.05 10.76,44.1 L11.84,46.17 C15.66,43.1 20.26,40.97 25.28,40.09 C25.38,40.06 25.49,40.05 25.59,40.03 C25.76,40 25.95,39.96 26.12,39.93 C26.33,39.9 26.53,39.86 26.74,39.83 C26.92,39.81 27.11,39.79 27.3,39.77 C27.67,39.74 28.05,39.71 28.42,39.69 C28.42,39.69 30.2,39.59 32.39,39.59 C34.58,39.59 37.07,39.67 37.07,39.67 C37.73,39.69 38.38,39.72 39.03,39.78 C41.12,40.01 43.15,40.46 45.09,41.1 C45.15,41.12 45.21,41.14 45.27,41.16 C50.11,42.79 57.78,49.35 57.78,49.34 C59.05,47.94 60.45,46.67 61.96,45.54 C62.16,45.39 62.36,45.24 62.55,45.11 C66.23,42.42 70.52,40.56 75.32,39.93 C75.37,39.92 75.42,39.92 75.48,39.91 C76.91,39.7 78.37,39.59 79.87,39.59 L84.99,39.59 C86.68,39.59 88.34,39.73 89.94,40.01 C90.08,40.03 90.22,40.04 90.35,40.08 C92.54,40.47 94.63,41.1 96.63,41.94 C96.76,42 96.88,42.05 97.01,42.11 C107.52,46.74 114.88,57.25 114.88,69.5 Z" id="Path"></path>
                <path d="M193.75,42.6 C194.4,42.6 194.88,42.84 195.17,43.31 C195.47,43.79 195.47,44.4 195.17,45.15 L165.09,116.56 L165.17,116.64 L153.02,146.04 C152.52,147.24 151.72,147.84 150.62,147.84 L141.09,147.84 C138.84,147.84 138.14,146.76 138.99,144.61 L150.39,116.33 L120.54,45.15 C120.24,44.4 120.24,43.79 120.54,43.31 C120.84,42.84 121.31,42.6 121.96,42.6 L133.81,42.6 C135.21,42.6 136.11,43.23 136.51,44.48 L157.81,98.71 L179.19,44.48 C179.59,43.23 180.47,42.6 181.82,42.6 L193.75,42.6 L193.75,42.6 Z" id="Path"></path>
                <path d="M276.48,86.48 L276.48,2.77 C276.48,1.42 275.78,0.75 274.38,0.75 L263.5,0.75 C262.15,0.75 261.48,1.43 261.48,2.77 L261.63,50.64 C255.23,45.1 247.03,41.56 238.02,41.05 C237.27,41 236.52,40.98 235.75,40.98 C224.17,40.98 213.74,45.97 206.52,53.92 C206.5,53.94 206.48,53.96 206.47,53.98 C200.44,61.25 197.42,70.13 197.42,80.62 C197.42,91.1 200.53,99.97 206.74,107.26 C206.75,107.28 206.77,107.29 206.78,107.31 C213.99,115.1 224.3,119.96 235.74,119.96 C236.53,119.96 237.31,119.93 238.1,119.89 C248.21,119.3 257.29,114.9 263.94,108.11 L265.9,117.07 C266.3,118.07 267.02,118.56 268.07,118.56 L274.45,118.56 C275.85,118.56 276.54,117.86 276.54,116.47 L276.54,86.4 L276.48,86.48 Z M235.74,104.88 C232.56,104.88 229.53,104.27 226.75,103.16 C217.72,99.58 211.34,90.77 211.34,80.47 C211.34,70.37 217.48,61.69 226.24,57.99 C226.26,57.98 226.27,57.98 226.27,57.97 C229.18,56.74 232.38,56.07 235.73,56.07 C249.21,56.07 260.130007,67 260.130007,80.47 C260.14,93.95 249.22,104.88 235.74,104.88 Z" id="Shape"></path>
                <path d="M366.04,42.52 L359.66,42.52 C358.62,42.52 357.89,43.04 357.49,44.09 L355.66,52.46 C348.88,45.73 339.69,41.44 329.49,41.01 C329.48,41.01 329.48,41.01 329.47,41.01 C328.92,40.98 328.38,40.98 327.82,40.98 C314.41,40.98 302.57,47.66 295.44,57.87 C291.3,64.34 289.24,71.93 289.24,80.62 C289.24,89.14 291.29,96.6 295.4,103.01 C302.53,113.26 314.39,119.96 327.82,119.96 C328.46,119.96 329.11,119.94 329.75,119.92 C339.83,119.43 348.92,115.17 355.64,108.51 L357.5,117.08 C357.95,118.13 358.67,118.65 359.67,118.65 L366.05,118.65 C366.7,118.65 367.21,118.45 367.59,118.05 C367.96,117.65 368.15,117.13 368.15,116.48 L368.15,44.69 C368.14,43.24 367.44,42.52 366.04,42.52 Z M346.62,98.18 C341.76,102.98 335.86,105.38 328.92,105.38 C324.56,105.38 320.6,104.38 317.05,102.38 C308.97,98.4 303.42,90.08 303.42,80.47 C303.42,71.11 308.69,62.97 316.45,58.88 C320.12,56.67 324.25,55.57 328.85,55.57 C335.8,55.57 341.71,57.99 346.59,62.81 C351.47,67.63 353.91,73.55 353.91,80.55 C353.89,87.5 351.47,93.38 346.62,98.18 Z" id="Shape"></path>
            </g>
        </g>
    </g>
</svg>